<svg width="610" height="101" viewBox="0 0 610 101" fill="none" xmlns="http://www.w3.org/2000/svg">
<path d="M50.9859 65.936C55.1606 65.936 58.5449 69.3203 58.5449 73.495C58.5449 77.6696 55.1606 81.0539 50.9859 81.0539H27.505C23.3304 81.0539 19.9461 77.6696 19.9461 73.495C19.9461 69.3203 23.3304 65.936 27.505 65.936H50.9859Z" fill="white"/>
<path d="M73.5019 65.936C77.6765 65.936 81.0608 69.3203 81.0608 73.495C81.0608 77.6696 77.6765 81.0539 73.5019 81.0539H73.1802C69.0055 81.0539 65.6213 77.6696 65.6213 73.495C65.6213 69.3203 69.0055 65.936 73.1802 65.936H73.5019Z" fill="white"/>
<path d="M27.505 42.7768C31.6797 42.7768 35.064 46.161 35.064 50.3357V50.6574C35.064 54.832 31.6797 58.2163 27.505 58.2163C23.3304 58.2163 19.9461 54.832 19.9461 50.6574V50.3357C19.9461 46.161 23.3304 42.7768 27.505 42.7768Z" fill="white"/>
<path d="M49.8601 42.7768C54.1236 42.7768 57.5799 46.233 57.5799 50.4965C57.5799 54.76 54.1236 58.2163 49.8601 58.2163C45.5966 58.2163 42.1404 54.76 42.1404 50.4965C42.1404 46.233 45.5966 42.7768 49.8601 42.7768Z" fill="white"/>
<path d="M72.3761 42.7768C76.6396 42.7768 80.0958 46.233 80.0958 50.4965C80.0958 54.76 76.6396 58.2163 72.3761 58.2163C68.1126 58.2163 64.6563 54.76 64.6563 50.4965C64.6563 46.233 68.1126 42.7768 72.3761 42.7768Z" fill="white"/>
<path d="M73.4984 19.9427C77.6731 19.9427 81.0573 23.3269 81.0573 27.5016C81.0573 31.6763 77.6731 35.0605 73.4984 35.0605H27.5016C23.3269 35.0605 19.9427 31.6763 19.9427 27.5016C19.9427 23.3269 23.3269 19.9427 27.5016 19.9427H73.4984Z" fill="white"/>
<path fill-rule="evenodd" clip-rule="evenodd" d="M85.5605 0C94.0795 0 101 6.89627 101 15.421V85.628L101 85.6573L100.997 85.8894C100.996 85.922 100.996 85.9493 100.995 85.9685L100.995 85.9745C100.995 85.9864 100.994 85.9982 100.994 86.01L100.994 86.0088V86.011C100.994 86.0132 100.994 86.0147 100.994 86.0147C100.761 94.3392 93.9341 101 85.5605 101H15.3908L15.3616 101L15.1291 100.997C15.0965 100.996 15.0689 100.996 15.0497 100.995C15.0412 100.995 15.0335 100.995 15.0271 100.994L15.007 100.994C6.6861 100.763 0 93.9591 0 85.579V15.421C1.32069e-06 7.09402 6.60161 0.322383 14.8489 0.0109941L15.0443 0.00502588H15.0459L15.0874 0.00376941L15.1291 0.00314117L15.3616 0.000314117L15.3908 0H85.5605ZM15.4395 10.2833C12.5972 10.2833 10.293 12.5836 10.293 15.421V85.579C10.293 88.4164 12.5972 90.7167 15.4395 90.7167H85.5605C88.4028 90.7167 90.707 88.4164 90.707 85.579V15.421C90.707 12.5836 88.4028 10.2833 85.5605 10.2833H15.4395Z" fill="white"/>
<path d="M15.0095 100.994H15.0076C15.006 100.994 15.0041 100.994 15.0041 100.994C15.0051 100.994 15.006 100.994 15.007 100.994C15.0077 100.994 15.0085 100.994 15.0095 100.994Z" fill="white"/>
<path d="M180.486 81.5C174.3 81.5 169.01 80.2423 164.616 77.7268C160.222 75.2114 156.839 71.6383 154.469 67.0076C152.156 62.3197 151 56.8029 151 50.4571C151 45.7121 151.665 41.453 152.995 37.6798C154.324 33.8495 156.232 30.5908 158.718 27.9039C161.262 25.1598 164.355 23.0731 167.998 21.6438C171.698 20.2146 175.861 19.5 180.486 19.5C183.897 19.5 187.164 19.9574 190.286 20.8721C193.466 21.7868 196.212 23.1017 198.525 24.8167C199.508 25.4456 200.144 26.2174 200.433 27.1321C200.78 27.9896 200.837 28.8186 200.606 29.619C200.433 30.4193 200.057 31.1053 199.479 31.677C198.901 32.1916 198.149 32.4774 197.224 32.5346C196.357 32.5917 195.403 32.2773 194.362 31.5913C192.454 30.1621 190.344 29.1044 188.031 28.4184C185.719 27.7324 183.29 27.3893 180.746 27.3893C176.352 27.3893 172.652 28.3041 169.646 30.1335C166.639 31.9057 164.355 34.5069 162.794 37.9371C161.233 41.3672 160.453 45.5406 160.453 50.4571C160.453 55.3737 161.233 59.5756 162.794 63.0629C164.355 66.4931 166.639 69.1229 169.646 70.9523C172.652 72.7245 176.352 73.6106 180.746 73.6106C183.29 73.6106 185.719 73.2676 188.031 72.5816C190.402 71.8384 192.628 70.7522 194.709 69.323C195.75 68.6941 196.675 68.4083 197.484 68.4654C198.351 68.5226 199.074 68.8084 199.652 69.323C200.23 69.8375 200.606 70.4949 200.78 71.2953C201.011 72.0385 200.982 72.8389 200.693 73.6964C200.462 74.4968 199.912 75.1828 199.045 75.7545C196.675 77.6411 193.871 79.0703 190.633 80.0422C187.395 81.0141 184.013 81.5 180.486 81.5Z" fill="white"/>
<path d="M226.07 81.5C221.792 81.5 218.092 80.6139 214.97 78.8416C211.906 77.0694 209.506 74.5539 207.772 71.2953C206.037 68.0367 205.17 64.2063 205.17 59.8043C205.17 56.4313 205.661 53.4299 206.644 50.8001C207.627 48.1704 209.015 45.9122 210.807 44.0256C212.657 42.0818 214.854 40.624 217.398 39.6521C220 38.6231 222.891 38.1086 226.07 38.1086C230.291 38.1086 233.933 38.9947 236.998 40.7669C240.12 42.5392 242.548 45.0546 244.283 48.3133C246.017 51.5148 246.884 55.3451 246.884 59.8043C246.884 63.1201 246.393 66.1215 245.41 68.8084C244.427 71.4954 243.011 73.7822 241.16 75.6687C239.368 77.5553 237.171 79.0131 234.569 80.0422C232.026 81.0141 229.193 81.5 226.07 81.5ZM226.07 74.8112C228.441 74.8112 230.522 74.2395 232.315 73.0961C234.107 71.9527 235.494 70.2663 236.477 68.0367C237.518 65.8071 238.038 63.0629 238.038 59.8043C238.038 54.8877 236.94 51.1717 234.743 48.6563C232.546 46.1408 229.655 44.8831 226.07 44.8831C223.642 44.8831 221.532 45.4548 219.74 46.5982C217.947 47.6844 216.531 49.3423 215.49 51.5719C214.507 53.8015 214.016 56.5456 214.016 59.8043C214.016 64.6637 215.114 68.3797 217.311 70.9523C219.508 73.5249 222.428 74.8112 226.07 74.8112Z" fill="white"/>
<path d="M275.107 81.5C270.828 81.5 267.128 80.6139 264.006 78.8416C260.942 77.0694 258.543 74.5539 256.808 71.2953C255.074 68.0367 254.206 64.2063 254.206 59.8043C254.206 56.4313 254.698 53.4299 255.681 50.8001C256.663 48.1704 258.051 45.9122 259.843 44.0256C261.693 42.0818 263.89 40.624 266.434 39.6521C269.036 38.6231 271.927 38.1086 275.107 38.1086C279.327 38.1086 282.97 38.9947 286.034 40.7669C289.156 42.5392 291.584 45.0546 293.319 48.3133C295.053 51.5148 295.921 55.3451 295.921 59.8043C295.921 63.1201 295.429 66.1215 294.446 68.8084C293.463 71.4954 292.047 73.7822 290.197 75.6687C288.404 77.5553 286.207 79.0131 283.606 80.0422C281.062 81.0141 278.229 81.5 275.107 81.5ZM275.107 74.8112C277.477 74.8112 279.559 74.2395 281.351 73.0961C283.143 71.9527 284.531 70.2663 285.514 68.0367C286.554 65.8071 287.075 63.0629 287.075 59.8043C287.075 54.8877 285.976 51.1717 283.779 48.6563C281.582 46.1408 278.691 44.8831 275.107 44.8831C272.679 44.8831 270.568 45.4548 268.776 46.5982C266.984 47.6844 265.567 49.3423 264.526 51.5719C263.544 53.8015 263.052 56.5456 263.052 59.8043C263.052 64.6637 264.151 68.3797 266.348 70.9523C268.545 73.5249 271.464 74.8112 275.107 74.8112Z" fill="white"/>
<path d="M310.094 81.3285C308.706 81.3285 307.637 80.9569 306.885 80.2137C306.133 79.4133 305.758 78.3271 305.758 76.9551V24.045C305.758 22.6157 306.133 21.5295 306.885 20.7863C307.637 20.0431 308.706 19.6715 310.094 19.6715C311.481 19.6715 312.551 20.0431 313.303 20.7863C314.112 21.5295 314.517 22.6157 314.517 24.045V57.1459H314.69L330.908 41.1957C331.833 40.281 332.671 39.5664 333.423 39.0519C334.174 38.5373 335.157 38.2801 336.371 38.2801C337.585 38.2801 338.51 38.5945 339.146 39.2234C339.782 39.8522 340.1 40.624 340.1 41.5387C340.1 42.3963 339.667 43.2824 338.799 44.1971L321.628 61.0048V56.9744L340.361 75.4115C341.286 76.3262 341.719 77.2409 341.661 78.1556C341.604 79.0703 341.228 79.8421 340.534 80.471C339.84 81.0426 338.973 81.3285 337.932 81.3285C336.602 81.3285 335.533 81.0712 334.723 80.5567C333.972 80.0422 333.076 79.2704 332.035 78.2414L314.69 61.6051H314.517V76.9551C314.517 79.8707 313.042 81.3285 310.094 81.3285Z" fill="white"/>
<path d="M369.403 81.5C364.778 81.5 360.788 80.6425 357.435 78.9274C354.139 77.1551 351.567 74.6683 349.717 71.4668C347.924 68.2082 347.028 64.3492 347.028 59.89C347.028 55.5452 347.924 51.7434 349.717 48.4848C351.509 45.2261 353.966 42.6821 357.088 40.8527C360.21 39.0233 363.766 38.1086 367.755 38.1086C370.704 38.1086 373.334 38.5945 375.647 39.5664C377.96 40.4811 379.925 41.8532 381.544 43.6826C383.221 45.4548 384.464 47.6272 385.273 50.1999C386.141 52.7725 386.574 55.6595 386.574 58.861C386.574 59.8329 386.285 60.5761 385.707 61.0906C385.129 61.5479 384.262 61.7766 383.105 61.7766H353.966V56.4599H380.677L379.203 57.6604C379.203 54.802 378.769 52.3723 377.902 50.3714C377.092 48.3704 375.849 46.8555 374.173 45.8264C372.554 44.7402 370.53 44.1971 368.102 44.1971C365.385 44.1971 363.072 44.826 361.164 46.0837C359.314 47.3414 357.897 49.0851 356.915 51.3147C355.932 53.5443 355.44 56.1455 355.44 59.1183V59.6328C355.44 64.6637 356.626 68.4654 358.996 71.038C361.424 73.5535 364.922 74.8112 369.49 74.8112C371.224 74.8112 373.045 74.5825 374.953 74.1252C376.919 73.6678 378.769 72.896 380.504 71.8098C381.486 71.2381 382.354 70.9809 383.105 71.038C383.915 71.0952 384.551 71.3525 385.013 71.8098C385.534 72.2672 385.852 72.8389 385.967 73.5249C386.083 74.2109 385.967 74.9255 385.62 75.6687C385.273 76.3548 384.666 76.9836 383.799 77.5553C381.833 78.8702 379.55 79.8707 376.948 80.5567C374.346 81.1856 371.831 81.5 369.403 81.5Z" fill="white"/>
<path d="M412.254 81.5C408.554 81.5 405.287 80.6425 402.454 78.9274C399.679 77.1551 397.511 74.6397 395.95 71.3811C394.389 68.0652 393.608 64.2063 393.608 59.8043C393.608 55.2879 394.389 51.429 395.95 48.2275C397.511 45.026 399.679 42.5392 402.454 40.7669C405.287 38.9947 408.554 38.1086 412.254 38.1086C415.954 38.1086 419.134 39.0233 421.794 40.8527C424.511 42.6249 426.332 45.026 427.257 48.056H426.303V24.045C426.303 22.6157 426.679 21.5295 427.431 20.7863C428.182 20.0431 429.252 19.6715 430.639 19.6715C432.027 19.6715 433.097 20.0431 433.848 20.7863C434.658 21.5295 435.062 22.6157 435.062 24.045V76.9551C435.062 78.3271 434.687 79.4133 433.935 80.2137C433.183 80.9569 432.114 81.3285 430.726 81.3285C429.339 81.3285 428.269 80.9569 427.517 80.2137C426.766 79.4133 426.39 78.3271 426.39 76.9551V69.4087L427.344 71.2953C426.419 74.3824 424.598 76.8693 421.88 78.7559C419.221 80.5853 416.012 81.5 412.254 81.5ZM414.509 74.8112C416.879 74.8112 418.961 74.2395 420.753 73.0961C422.545 71.9527 423.933 70.2663 424.916 68.0367C425.956 65.8071 426.477 63.0629 426.477 59.8043C426.477 54.8877 425.378 51.1717 423.181 48.6563C420.984 46.1408 418.093 44.8831 414.509 44.8831C412.081 44.8831 409.97 45.4548 408.178 46.5982C406.386 47.6844 404.969 49.3423 403.929 51.5719C402.946 53.8015 402.454 56.5456 402.454 59.8043C402.454 64.6637 403.553 68.3797 405.75 70.9523C407.947 73.5249 410.866 74.8112 414.509 74.8112Z" fill="white"/>
<path d="M475.72 81.5C469.534 81.5 464.244 80.2423 459.85 77.7268C455.456 75.2114 452.074 71.6383 449.703 67.0076C447.391 62.3197 446.234 56.8029 446.234 50.4571C446.234 45.7121 446.899 41.453 448.229 37.6798C449.559 33.8495 451.467 30.5908 453.953 27.9039C456.497 25.1598 459.59 23.0731 463.232 21.6438C466.932 20.2146 471.095 19.5 475.72 19.5C479.132 19.5 482.398 19.9574 485.52 20.8721C488.7 21.7868 491.446 23.1017 493.759 24.8167C494.742 25.4456 495.378 26.2174 495.667 27.1321C496.014 27.9896 496.072 28.8186 495.84 29.619C495.667 30.4193 495.291 31.1053 494.713 31.677C494.135 32.1916 493.383 32.4774 492.458 32.5346C491.591 32.5917 490.637 32.2773 489.596 31.5913C487.688 30.1621 485.578 29.1044 483.265 28.4184C480.953 27.7324 478.524 27.3893 475.981 27.3893C471.587 27.3893 467.886 28.3041 464.88 30.1335C461.873 31.9057 459.59 34.5069 458.029 37.9371C456.468 41.3672 455.687 45.5406 455.687 50.4571C455.687 55.3737 456.468 59.5756 458.029 63.0629C459.59 66.4931 461.873 69.1229 464.88 70.9523C467.886 72.7245 471.587 73.6106 475.981 73.6106C478.524 73.6106 480.953 73.2676 483.265 72.5816C485.636 71.8384 487.862 70.7522 489.943 69.323C490.984 68.6941 491.909 68.4083 492.718 68.4654C493.586 68.5226 494.308 68.8084 494.886 69.323C495.465 69.8375 495.84 70.4949 496.014 71.2953C496.245 72.0385 496.216 72.8389 495.927 73.6964C495.696 74.4968 495.147 75.1828 494.279 75.7545C491.909 77.6411 489.105 79.0703 485.867 80.0422C482.629 81.0141 479.247 81.5 475.72 81.5Z" fill="white"/>
<path d="M518.057 81.5C515.109 81.5 512.449 80.9283 510.079 79.7849C507.766 78.6415 505.945 77.098 504.615 75.1542C503.285 73.2105 502.62 71.0094 502.62 68.5512C502.62 65.464 503.401 63.0343 504.962 61.2621C506.581 59.4327 509.211 58.1464 512.854 57.4032C516.554 56.6028 521.526 56.2026 527.77 56.2026H531.846V61.5194H527.857C523.694 61.5194 520.399 61.7195 517.971 62.1196C515.542 62.5198 513.808 63.2059 512.767 64.1777C511.784 65.0924 511.293 66.3787 511.293 68.0367C511.293 70.2091 512.044 71.9813 513.548 73.3534C515.051 74.6683 517.132 75.3257 519.792 75.3257C521.931 75.3257 523.81 74.8398 525.429 73.8679C527.048 72.8389 528.32 71.4668 529.245 69.7517C530.228 68.0367 530.719 66.0643 530.719 63.8347V53.973C530.719 50.7144 530.025 48.3704 528.638 46.9412C527.25 45.512 524.966 44.7974 521.786 44.7974C519.936 44.7974 517.999 45.026 515.976 45.4834C514.01 45.9408 511.958 46.7125 509.819 47.7988C508.836 48.2561 507.997 48.399 507.304 48.2275C506.61 48.056 506.06 47.6844 505.656 47.1127C505.251 46.4839 505.02 45.8264 504.962 45.1404C504.962 44.3972 505.135 43.6826 505.482 42.9965C505.887 42.3105 506.552 41.796 507.477 41.453C510.021 40.2524 512.536 39.3949 515.022 38.8804C517.508 38.3658 519.85 38.1086 522.047 38.1086C525.92 38.1086 529.1 38.7089 531.586 39.9094C534.13 41.11 536.009 42.9394 537.223 45.3976C538.437 47.8559 539.045 51.0288 539.045 54.9163V76.9551C539.045 78.3271 538.698 79.4133 538.004 80.2137C537.31 80.9569 536.298 81.3285 534.968 81.3285C533.697 81.3285 532.685 80.9569 531.933 80.2137C531.182 79.4133 530.806 78.3271 530.806 76.9551V71.3811H531.586C531.124 73.4963 530.256 75.3257 528.985 76.8693C527.77 78.3557 526.238 79.4991 524.388 80.2994C522.538 81.0998 520.428 81.5 518.057 81.5Z" fill="white"/>
<path d="M564.724 81.5C560.215 81.5 556.804 80.2137 554.491 77.6411C552.236 75.0113 551.109 71.2381 551.109 66.3216V24.045C551.109 22.6157 551.484 21.5295 552.236 20.7863C552.988 20.0431 554.057 19.6715 555.445 19.6715C556.832 19.6715 557.902 20.0431 558.654 20.7863C559.463 21.5295 559.868 22.6157 559.868 24.045V65.8071C559.868 68.6655 560.446 70.8094 561.602 72.2386C562.816 73.6107 564.551 74.2967 566.806 74.2967C567.326 74.2967 567.789 74.2967 568.193 74.2967C568.598 74.2395 569.003 74.1823 569.407 74.1252C570.101 74.068 570.593 74.2681 570.882 74.7254C571.171 75.1256 571.315 75.9832 571.315 77.2981C571.315 78.4986 571.055 79.4419 570.535 80.1279C570.014 80.7568 569.176 81.157 568.02 81.3285C567.499 81.3857 566.95 81.4142 566.372 81.4142C565.794 81.4714 565.245 81.5 564.724 81.5Z" fill="white"/>
<path d="M595.839 81.5C591.503 81.5 587.745 80.6139 584.565 78.8416C581.443 77.0122 579.015 74.4682 577.28 71.2095C575.546 67.8937 574.679 64.0062 574.679 59.547C574.679 56.2312 575.17 53.2584 576.153 50.6286C577.136 47.9417 578.523 45.6835 580.316 43.8541C582.166 42.0247 584.392 40.624 586.993 39.6521C589.653 38.6231 592.602 38.1086 595.839 38.1086C597.863 38.1086 599.973 38.423 602.17 39.0519C604.425 39.6236 606.506 40.5954 608.414 41.9675C609.166 42.4248 609.628 42.9965 609.802 43.6826C610.033 44.3114 610.062 44.9689 609.889 45.6549C609.773 46.3409 609.455 46.9412 608.935 47.4557C608.472 47.9131 607.894 48.1989 607.2 48.3133C606.506 48.3705 605.755 48.1704 604.945 47.713C603.558 46.7411 602.141 46.0551 600.696 45.6549C599.25 45.1976 597.863 44.9689 596.533 44.9689C594.452 44.9689 592.602 45.3119 590.983 45.9979C589.422 46.6268 588.092 47.5701 586.993 48.8278C585.895 50.0284 585.057 51.5433 584.478 53.3728C583.958 55.2022 583.698 57.2888 583.698 59.6328C583.698 64.3207 584.796 68.0081 586.993 70.695C589.248 73.3248 592.428 74.6397 596.533 74.6397C597.863 74.6397 599.25 74.4396 600.696 74.0394C602.141 73.6392 603.558 72.9532 604.945 71.9813C605.755 71.524 606.506 71.3525 607.2 71.4668C607.894 71.5811 608.443 71.8956 608.848 72.4101C609.31 72.8674 609.599 73.4391 609.715 74.1252C609.889 74.754 609.86 75.4115 609.628 76.0975C609.397 76.7835 608.906 77.3552 608.154 77.8126C606.304 79.1275 604.28 80.0708 602.083 80.6425C599.944 81.2142 597.863 81.5 595.839 81.5Z" fill="white"/>
</svg>
