<svg width="736" height="736" viewBox="0 0 736 736" fill="none" xmlns="http://www.w3.org/2000/svg">
<rect width="736" height="736" fill="#0E0E0E"/>
<path d="M369.703 422.103C384.335 422.103 396.197 433.964 396.197 448.596C396.197 463.228 384.335 475.09 369.703 475.09H287.404C272.772 475.09 260.91 463.228 260.91 448.596C260.91 433.964 272.772 422.103 287.404 422.103H369.703Z" fill="white"/>
<path d="M448.62 422.103C463.252 422.103 475.114 433.964 475.114 448.596C475.114 463.228 463.252 475.09 448.62 475.09H447.493C432.861 475.09 420.999 463.228 420.999 448.596C420.999 433.964 432.861 422.103 447.493 422.103H448.62Z" fill="white"/>
<path d="M287.404 340.931C302.036 340.931 313.897 352.792 313.897 367.424V368.552C313.897 383.184 302.036 395.045 287.404 395.045C272.772 395.045 260.91 383.184 260.91 368.552V367.424C260.91 352.792 272.772 340.931 287.404 340.931Z" fill="white"/>
<path d="M365.757 340.931C380.701 340.931 392.815 353.045 392.815 367.988C392.815 382.931 380.701 395.045 365.757 395.045C350.814 395.045 338.7 382.931 338.7 367.988C338.7 353.045 350.814 340.931 365.757 340.931Z" fill="white"/>
<path d="M444.675 340.931C459.618 340.931 471.732 353.045 471.732 367.988C471.732 382.931 459.618 395.045 444.675 395.045C429.731 395.045 417.617 382.931 417.617 367.988C417.617 353.045 429.731 340.931 444.675 340.931Z" fill="white"/>
<path d="M448.608 260.898C463.24 260.898 475.102 272.76 475.102 287.392C475.102 302.024 463.24 313.885 448.608 313.885H287.392C272.76 313.885 260.898 302.024 260.898 287.392C260.898 272.76 272.76 260.898 287.392 260.898H448.608Z" fill="white"/>
<path fill-rule="evenodd" clip-rule="evenodd" d="M490.885 191C520.744 191 545 215.171 545 245.05V491.122L544.999 491.224L544.989 492.038C544.988 492.152 544.985 492.248 544.983 492.315L544.982 492.336C544.981 492.378 544.979 492.419 544.978 492.461L544.979 492.456V492.464C544.979 492.472 544.978 492.477 544.978 492.477C544.162 521.654 520.234 545 490.885 545H244.944L244.842 544.999L244.027 544.989C243.912 544.988 243.816 544.985 243.748 544.983C243.719 544.983 243.692 544.981 243.669 544.98L243.599 544.978C214.434 544.171 191 520.322 191 490.95V245.05C191 215.864 214.138 192.13 243.045 191.039L243.73 191.018H243.735L243.88 191.013L244.027 191.011L244.842 191.001L244.944 191H490.885ZM245.115 227.042C235.152 227.042 227.076 235.105 227.076 245.05V490.95C227.076 500.895 235.152 508.958 245.115 508.958H490.885C500.848 508.958 508.924 500.895 508.924 490.95V245.05C508.924 235.105 500.848 227.042 490.885 227.042H245.115Z" fill="white"/>
<path d="M243.607 544.979H243.601C243.595 544.979 243.589 544.978 243.589 544.978C243.592 544.978 243.595 544.978 243.599 544.978C243.601 544.978 243.604 544.979 243.607 544.979Z" fill="white"/>
</svg>
